<?xml version="1.0" encoding="UTF-8"?>
<!-- Generated by jsxcad -->
<!DOCTYPE svg PUBLIC "-//W3C//DTD SVG 1.1 Tiny//EN" "http://www.w3.org/Graphics/SVG/1.1/DTD/svg11-tiny.dtd">
<svg baseProfile="tiny" height="124.11467116357511mm" width="200.0000000000001mm" viewBox="-100.00000000000006 -62.057335581787555 200.0000000000001 124.11467116357511" version="1.1" stroke="black" stroke-width=".1" fill="none" xmlns="http://www.w3.org/2000/svg">
<path fill="#bababa" stroke="#bababa" d="M84.62057335581787 -54.215851602023605 L84.62057335581787 -54.215851602023605 L78.41483979763912 -62.05733558178752 L78.41483979763912 -62.05733558178752 z"/>
<path fill="#bababa" stroke="#bababa" d="M28.75 -10 L28.75 -10 L84.62057335581787 -54.215851602023605 L84.62057335581787 -54.215851602023605 z"/>
<path fill="#bababa" stroke="#bababa" d="M78.41483979763912 -62.05733558178752 L78.41483979763912 -62.05733558178752 L16.5 -13.058064516129035 L16.5 -13.058064516129035 z"/>
<path fill="#bababa" stroke="#bababa" d="M16.5 -10 L16.5 -10 L28.75 -10 L28.75 -10 z"/>
<path fill="#bababa" stroke="#bababa" d="M16.5 -13.058064516129035 L16.5 -13.058064516129035 L16.5 -10 L16.5 -10 z"/>
<path fill="#bababa" stroke="#bababa" d="M84.62057335581787 -54.215851602023605 L78.41483979763912 -62.05733558178752 L16.5 -13.058064516129035 L16.5 -10 L28.75 -10 z"/>
<path fill="#bababa" stroke="#bababa" d="M84.62057335581787 -54.215851602023605 L28.75 -10 L16.5 -10 L16.5 -13.058064516129035 L78.41483979763912 -62.05733558178752 z"/>
<path fill="#bababa" stroke="#bababa" d="M100 -10 L100 -10 L16.5 -10 L16.5 -10 z"/>
<path fill="#bababa" stroke="#bababa" d="M100 0 L100 0 L100 -10 L100 -10 z"/>
<path fill="#bababa" stroke="#bababa" d="M16.5 0 L16.5 0 L100 0 L100 0 z"/>
<path fill="#bababa" stroke="#bababa" d="M16.5 -10 L16.5 -10 L16.5 0 L16.5 0 z"/>
<path fill="#bababa" stroke="#bababa" d="M100 -10 L16.5 -10 L16.5 0 L100 0 z"/>
<path fill="#bababa" stroke="#bababa" d="M100 -10 L100 0 L16.5 0 L16.5 -10 z"/>
</svg>